PathFileType	4	(x/y/z)	S06_M20_T18
DataRate	CameraRate	NumFrames	NumMarkers	Units	OrigDataRate	OrigDataStartFrame	OrigNumFrames
240	240	4	51	mm	240	61	481
Frame#	Time	Sternum			R.Acromium			L.Acromium			Top.Head			R.ASIS			L.ASIS			R.PSIS			L.PSIS			R.Great.Tro			L.Great.Tro			R.Iliac.Crest			L.Iliac.Crest			V.Sacral			R.Thigh.Upper.Post			R.Thigh.Lower.Ant			R.Thigh.Lower.Post			R.Thigh.Upper.Ant			R.Knee.Lat			R.Knee.Med			R.Shank.Upper.Post			R.Shank.Lower.Ant			R.Shank.Lower.Post			R.Shank.Upper.Ant			R.Ankle.Lat			R.Ankle.Med			R.Heel.Upper			R.Heel.Med			R.Heel.Lat			R.Toe.Lat			R.Toe.Med			R.Toe.Tip			L.Thigh.Upper.Post			L.Thigh.Lower.Ant			L.Thigh.Lower.Post			L.Thigh.Upper.Ant			L.Knee.Lat			L.Knee.Med			L.Shank.Upper.Post			L.Shank.Lower.Ant			L.Shank.Lower.Post			L.Shank.Upper.Ant			L.Ankle.Lat			L.Ankle.Med			L.Heel.Upper			L.Heel.Med			L.Heel.Lat			L.Toe.Lat			L.Toe.Med			L.Toe.Tip			Cervical.Spine			Back			
		X1	Y1	Z1	X2	Y2	Z2	X3	Y3	Z3	X4	Y4	Z4	X5	Y5	Z5	X6	Y6	Z6	X7	Y7	Z7	X8	Y8	Z8	X9	Y9	Z9	X10	Y10	Z10	X11	Y11	Z11	X12	Y12	Z12	X13	Y13	Z13	X14	Y14	Z14	X15	Y15	Z15	X16	Y16	Z16	X17	Y17	Z17	X18	Y18	Z18	X19	Y19	Z19	X20	Y20	Z20	X21	Y21	Z21	X22	Y22	Z22	X23	Y23	Z23	X24	Y24	Z24	X25	Y25	Z25	X26	Y26	Z26	X27	Y27	Z27	X28	Y28	Z28	X29	Y29	Z29	X30	Y30	Z30	X31	Y31	Z31	X32	Y32	Z32	X33	Y33	Z33	X34	Y34	Z34	X35	Y35	Z35	X36	Y36	Z36	X37	Y37	Z37	X38	Y38	Z38	X39	Y39	Z39	X40	Y40	Z40	X41	Y41	Z41	X42	Y42	Z42	X43	Y43	Z43	X44	Y44	Z44	X45	Y45	Z45	X46	Y46	Z46	X47	Y47	Z47	X48	Y48	Z48	X49	Y49	Z49	X50	Y50	Z50	X51	Y51	Z51	

61	0.25	NaN	NaN	NaN	-1410.4	1502.3	469.69	-1425.7	1495.8	120.08	-1352.5	1810.7	282.49	NaN	NaN	NaN	NaN	NaN	NaN	-1512.3	1070.1	327.3	-1512.2	1076	247.65	-1384.1	977.05	480.29	-1386	981.98	122.57	-1416.7	1129.7	461.71	-1378.2	1127.7	141.47	-1526.7	1039.2	290.11	-1366.9	730.63	490.08	-1301.7	649.28	471.9	-1378.2	642.29	479.11	-1296.2	740.39	477.28	-1362.7	535.19	476.11	-1339.6	523.46	348.71	-1557.3	421.49	473.99	NaN	NaN	NaN	-1614.7	374.97	458.45	-1505.2	377.85	470.6	-1703.6	273.87	436.61	-1679.8	256.96	355.49	-1757	297.04	384.68	-1778.4	274.21	352.18	-1784.3	278.28	415.43	-1708.1	123.42	468.64	-1673.3	103.5	356.24	NaN	NaN	NaN	-1292.1	725.14	150.97	-1237.4	655.97	217.44	-1300.3	637.21	174.03	-1235	747.6	190.18	-1304.8	543.69	194.28	-1281.9	557.62	314.1	-1346.1	315.59	213.23	-1280.1	255.24	221.01	-1350.8	244.72	233.48	-1279	324.84	205.92	-1301.5	107.27	242.51	-1296.4	130.57	329.94	-1383	74.089	287.41	-1383.9	49.806	318.79	-1375.6	48.454	258.11	-1194.8	44.945	227.97	-1180.6	47.043	348.16	-1105.9	59.686	295.63	-1478	1551.2	295.28	-1523.7	1274.1	298.86
62	0.25417	-1269.9	1295.6	308.9	-1405.3	1502.8	469.53	-1419.9	1496.4	119.88	-1346.6	1811.2	282.48	NaN	NaN	NaN	NaN	NaN	NaN	-1507.1	1070.6	327.04	-1507.1	1076.6	247.41	-1378.5	977.62	480.08	-1381.1	982.74	122.26	-1411.6	1130.2	461.43	-1373.1	1128.4	141.21	-1521.5	1039.7	289.82	-1358.3	731.46	490.27	-1292.4	650.69	471.96	-1369.3	643.11	479.19	-1287.5	741.9	477.2	-1351.9	536.12	476.16	-1329.2	524.65	348.62	-1545.6	421.39	473.86	NaN	NaN	NaN	-1602.7	374.38	458.42	-1493.3	378.15	470.7	-1691.1	272.73	436.77	-1667	255.72	355.79	-1746.2	294.72	384.44	-1766.3	271.03	352.3	-1772.8	275.57	415.66	-1693.2	122.68	470.05	-1657.9	102.37	357.73	NaN	NaN	NaN	-1288.8	725.44	150.69	-1234.6	655.84	217.06	-1297.5	637.55	173.65	-1231.5	747.49	189.82	-1302.8	543.88	194.05	-1279.6	557.71	313.79	-1345.2	315.85	213.17	-1279.4	255.25	220.79	-1350.1	245.03	233.47	-1278.2	324.81	205.63	-1301.2	107.4	242.46	-1296	130.7	329.8	-1382.8	74.168	287.46	-1383.9	49.921	318.8	-1375.5	48.611	258.12	-1194.8	44.885	227.93	-1180.4	46.894	348.16	-1105.8	59.242	295.59	-1472.5	1551.8	295.04	-1518.4	1274.8	298.39
63	0.25833	-1265.4	1296	308.72	-1400.2	1503.2	469.38	-1414.2	1497.1	119.68	-1340.7	1811.8	282.5	NaN	NaN	NaN	NaN	NaN	NaN	-1501.9	1071.1	326.82	-1502	1077.3	247.22	-1372.9	978.18	479.87	-1376.2	983.49	121.96	-1406.4	1130.7	461.17	-1368	1129.1	140.96	-1516.4	1040.3	289.58	-1349.8	732.31	490.44	-1283.1	652.15	471.96	-1360.2	643.95	479.24	-1278.9	743.44	477.11	-1341.1	537.08	476.16	-1318.8	525.89	348.5	-1533.9	421.21	473.72	NaN	NaN	NaN	-1590.7	373.66	458.39	-1481.4	378.4	470.77	-1678.6	271.43	436.95	-1654.1	254.34	356.08	-1735.2	292.22	384.24	-1754.1	267.7	352.46	-1761.2	272.68	415.95	-1678	121.83	471.42	-1642.4	101.15	359.16	-1598	59.344	409.65	-1285.5	725.74	150.41	-1231.7	655.72	216.68	-1294.8	637.91	173.28	-1228	747.37	189.47	-1300.8	544.07	193.83	-1277.4	557.81	313.49	-1344.4	316.13	213.11	-1278.8	255.27	220.57	-1349.5	245.35	233.46	-1277.4	324.8	205.34	-1301	107.53	242.39	-1295.7	130.85	329.64	-1382.7	74.253	287.49	-1383.8	50.026	318.81	-1375.4	48.764	258.12	-1194.8	44.826	227.9	-1180.3	46.771	348.15	-1105.6	58.835	295.55	-1467.1	1552.5	294.81	-1513.2	1275.5	297.95
64	0.2625	-1260.8	1296.5	308.54	-1395.1	1503.7	469.22	-1408.5	1497.7	119.48	-1334.8	1812.3	282.52	NaN	NaN	NaN	NaN	NaN	NaN	-1496.6	1071.6	326.65	-1496.9	1077.9	247.08	-1367.3	978.74	479.67	-1371.4	984.24	121.68	-1401.1	1131.2	460.94	-1362.8	1129.7	140.72	-1511.2	1040.9	289.39	-1341.3	733.17	490.59	-1273.9	653.64	471.9	-1351	644.81	479.27	-1270.3	744.99	477	-1330.3	538.07	476.1	-1308.2	527.18	348.35	-1522.2	420.94	473.57	NaN	NaN	NaN	-1578.5	372.83	458.36	-1469.4	378.62	470.81	-1665.8	269.96	437.16	-1641.1	252.84	356.36	-1724	289.55	384.09	-1741.7	264.22	352.68	-1749.3	269.64	416.27	-1662.7	120.87	472.74	-1626.7	99.871	360.52	-1583.4	59.202	410.87	-1282.4	726.05	150.15	-1228.9	655.61	216.31	-1292.2	638.27	172.92	-1224.5	747.25	189.12	-1298.9	544.29	193.6	-1275.4	557.92	313.2	-1343.7	316.41	213.04	-1278.2	255.31	220.35	-1349	245.68	233.45	-1276.6	324.82	205.05	-1300.8	107.66	242.32	-1295.3	131	329.48	-1382.5	74.347	287.53	-1383.8	50.123	318.84	-1375.4	48.917	258.11	-1194.7	44.767	227.86	-1180.2	46.672	348.14	-1105.4	58.46	295.49	-1461.6	1553.1	294.58	-1508	1276.2	297.54
